<svg width="1200" height="560" viewBox="0 0 1200 560" fill="none" xmlns="http://www.w3.org/2000/svg">
<defs>
  <linearGradient id="bg" x1="0" y1="0" x2="1200" y2="560">
    <stop stop-color="#06101A"/>
    <stop offset=".55" stop-color="#5DD8FF" stop-opacity=".28"/>
    <stop offset="1" stop-color="#07121B"/>
  </linearGradient>
  <linearGradient id="a" x1="140" y1="70" x2="1040" y2="490">
    <stop stop-color="#5DD8FF"/>
    <stop offset="1" stop-color="#8B7CFF"/>
  </linearGradient>
  <filter id="g" x="-40%" y="-40%" width="180%" height="180%">
    <feGaussianBlur stdDeviation="4" result="b"/>
    <feMerge><feMergeNode in="b"/><feMergeNode in="SourceGraphic"/></feMerge>
  </filter>
</defs>
<rect width="1200" height="560" rx="30" fill="url(#bg)"/>
<rect x="34" y="34" width="1132" height="492" rx="22" fill="#08131E" fill-opacity=".84" stroke="url(#a)" stroke-width="2"/>
<g opacity=".22" stroke="#5DD8FF">
  <path d="M0 96H180L230 146H340"/>
  <path d="M1200 455H1020L970 405H860"/>
</g>
<text x="84" y="100" font-family="JetBrains Mono,monospace" font-size="15" letter-spacing="4" fill="#8B7CFF">FEATURED SYSTEM</text>
<text x="84" y="176" font-family="Inter,Segoe UI,Arial,sans-serif" font-size="60" font-weight="900" fill="#F2FBFF">ResumeIQ</text>
<text x="84" y="218" font-family="JetBrains Mono,monospace" font-size="19" fill="#9FC7D1">AI-Powered Hiring Intelligence Platform</text>

<rect x="84" y="268" width="470" height="162" rx="16" fill="#0B1D29" stroke="#21475C"/>
<rect x="586" y="268" width="530" height="162" rx="16" fill="#0B1D29" stroke="#21475C"/>

<text x="110" y="305" font-family="JetBrains Mono,monospace" font-size="13" letter-spacing="2" fill="#8B7CFF">ENGINEERING METRICS</text>
<text x="110" y="356" font-family="Inter,Arial,sans-serif" font-size="34" font-weight="800" fill="#F2FBFF">50+</text>
<text x="330" y="356" font-family="Inter,Arial,sans-serif" font-size="34" font-weight="800" fill="#F2FBFF"><500ms</text>
<text x="110" y="388" font-family="JetBrains Mono,monospace" font-size="13" fill="#7895A0">semantic comparisons / query</text>
<text x="330" y="388" font-family="JetBrains Mono,monospace" font-size="13" fill="#7895A0">matching latency</text>

<text x="612" y="305" font-family="JetBrains Mono,monospace" font-size="13" letter-spacing="2" fill="#8B7CFF">SYSTEM FLOW</text>
<g font-family="JetBrains Mono,monospace" font-size="16" font-weight="700" fill="#DDF6FA">
  <rect x="612" y="330" width="108" height="48" rx="10" fill="#102939" stroke="#5DD8FF"/><text x="666" y="360" text-anchor="middle">INPUT</text>
  <rect x="748" y="330" width="108" height="48" rx="10" fill="#102939" stroke="#5DD8FF"/><text x="802" y="360" text-anchor="middle">PROCESS</text>
  <rect x="884" y="330" width="108" height="48" rx="10" fill="#102939" stroke="#5DD8FF"/><text x="938" y="360" text-anchor="middle">INTELLIGENCE</text>
  <rect x="1020" y="330" width="70" height="48" rx="10" fill="#102939" stroke="#5DD8FF"/><text x="1055" y="360" text-anchor="middle">SHIP</text>
</g>
<g stroke="#8B7CFF" stroke-width="2">
  <path d="M720 354H748"/><path d="M856 354H884"/><path d="M992 354H1020"/>
</g>
<text x="84" y="488" font-family="JetBrains Mono,monospace" font-size="13" fill="#6E8790">DESIGNED • BUILT • MEASURED • ITERATED</text>
<circle cx="1080" cy="92" r="8" fill="#8B7CFF" filter="url(#g)"><animate attributeName="r" values="6;10;6" dur="2.2s" repeatCount="indefinite"/></circle>
</svg>